<?xml version="1.0" encoding="UTF-8"?>
<svg id="Layer_2" data-name="Layer 2" xmlns="http://www.w3.org/2000/svg" viewBox="0 0 125.42 106.28">
  <defs>
    <style>
      .cls-1 {
        fill: #bfbc93;
      }

      .cls-2 {
        fill: #747c53;
      }

      .cls-3 {
        fill: #c1bd95;
      }

      .cls-4 {
        fill: #c0bc94;
      }
    </style>
  </defs>
  <g id="Layer_1-2" data-name="Layer 1">
    <g>
      <path class="cls-2" d="M8.15,104.23c-4.42-.9-8.49-1.23-8.13-6.64,1.33-19.86,15.93-30.72,31.36-41.84l38.08-27.43c11.78-8.48,24.26-13.69,38.46-16.38,4.42-.84,4.97-11.19,11.01-11.89,2.39-.28,4.97.55,6.01,2.9,2.41,5.41-5.29,9.86-4.08,19.41,3.71,29.39-16.37,53.61-40.74,68.77-21.62,13.46-46.43,18.29-71.99,13.09Z"/>
      <circle class="cls-3" cx="86.01" cy="48.01" r="12.93"/>
      <circle class="cls-4" cx="58.99" cy="68.49" r="12.51"/>
      <circle class="cls-1" cx="31.66" cy="82.76" r="11"/>
    </g>
  </g>
</svg>